<?xml version="1.0" encoding="UTF-8"?>
<svg width="92px" height="95px" viewBox="0 0 92 95" version="1.1" xmlns="http://www.w3.org/2000/svg" xmlns:xlink="http://www.w3.org/1999/xlink">
    <!-- Generator: Sketch 64 (93537) - https://sketch.com -->
    <title>Group 26</title>
    <desc>Created with Sketch.</desc>
    <defs>
        <polygon id="path-1" points="0.1838 0.1025 65.0128 0.1025 65.0128 13 0.1838 13"></polygon>
    </defs>
    <g id="Symbols" stroke="none" stroke-width="1" fill="none" fill-rule="evenodd">
        <g id="Logo/GCY-Main/Black">
            <g id="Group-26">
                <g id="Group-3" transform="translate(23.000000, 82.000000)">
                    <mask id="mask-2" fill="white">
                        <use xlink:href="#path-1"></use>
                    </mask>
                    <g id="Clip-2"></g>
                    <path d="M0.1838,10.2375 C1.5498,11.1125 2.9578,11.9205 4.4098,12.6565 C4.8638,12.8865 5.3628,13.0005 5.8648,13.0005 C6.1678,13.0005 6.4728,12.9585 6.7698,12.8765 C11.3008,11.6195 27.4508,7.2975 42.9278,7.2985 C46.8728,7.2985 50.7748,7.5785 54.4288,8.2625 C54.6898,8.3115 54.9518,8.3355 55.2118,8.3355 C56.1638,8.3355 57.0968,8.0155 57.8588,7.4195 C60.4628,5.3785 62.8608,3.0815 65.0128,0.5665 C64.1738,0.4995 63.3208,0.4385 62.4748,0.3915 C61.8968,0.3515 61.3198,0.3175 60.7418,0.2915 C58.3038,0.1635 55.8458,0.1025 53.3678,0.1025 C36.0938,0.1025 19.5328,3.1385 4.1798,8.7195 C3.4878,8.9745 2.7958,9.2295 2.1048,9.4925 C1.4598,9.7335 0.8218,9.9825 0.1838,10.2375" id="Fill-1" fill="#000000" mask="url(#mask-2)"></path>
                </g>
                <path d="M31.2375,29.1027 L39.1765,29.1027 L39.1765,37.8617 L36.0055,37.8617 L35.6605,36.2867 C34.7115,37.4947 33.2655,38.1637 31.3245,38.1637 C26.6655,38.1637 23.7305,35.0997 23.7305,30.3327 C23.7305,25.5437 26.8585,22.4587 31.7995,22.4587 C35.9195,22.4587 38.7235,24.5947 39.2185,28.0677 L34.1295,28.0677 C33.8265,27.0757 33.2015,26.2987 31.7125,26.2987 C29.6635,26.2987 28.7145,28.1747 28.7145,30.2897 C28.7145,32.7917 29.7495,34.2587 31.8635,34.2587 C33.0925,34.2587 34.0635,33.6557 34.5165,32.5117 L31.2375,32.5117 L31.2375,29.1027 Z" id="Fill-4" fill="#000000"></path>
                <polygon id="Fill-6" fill="#000000" points="41.034 37.862 45.348 37.862 45.348 22.761 41.034 22.761"></polygon>
                <path d="M51.0208,32.2531 C51.0208,33.7631 51.6248,34.8191 52.8758,34.8191 C54.1058,34.8191 54.7098,33.7631 54.7098,32.2531 C54.7098,30.8281 54.1058,29.7721 52.8758,29.7721 C51.6248,29.7721 51.0208,30.8281 51.0208,32.2531 M58.9378,32.2531 C58.9378,35.8561 56.5868,38.1631 52.8758,38.1631 C49.1448,38.1631 46.8148,35.8561 46.8148,32.2531 C46.8148,28.7151 49.1448,26.4281 52.8758,26.4281 C56.5868,26.4281 58.9378,28.7151 58.9378,32.2531" id="Fill-8" fill="#000000"></path>
                <path d="M64.2239,32.1887 L64.2239,32.2947 C64.2239,33.9567 65.1089,34.7767 66.1649,34.7767 C67.2219,34.7767 68.1719,33.9357 68.1719,32.2097 C68.1719,30.6567 67.2219,29.8147 66.1649,29.8147 C65.1089,29.8147 64.2449,30.6347 64.2239,32.1887 M64.3319,36.5017 L64.3099,36.5017 L64.3099,37.8617 L59.9959,37.8617 L59.9959,22.7607 L64.3099,22.7607 L64.3099,28.0247 L64.3319,28.0247 C64.8279,27.0327 66.2079,26.4277 67.5249,26.4277 C70.6089,26.4277 72.4209,28.7797 72.4209,32.2097 C72.4209,35.8117 70.6089,38.1637 67.5249,38.1637 C66.2079,38.1637 64.8279,37.5167 64.3319,36.5017" id="Fill-9" fill="#000000"></path>
                <path d="M80.7493,33.7414 L80.7493,33.2224 L80.1243,33.2224 C78.3763,33.2224 77.8803,33.7624 77.8803,34.3664 C77.8803,34.9064 78.3543,35.2514 79.0233,35.2514 C79.9943,35.2514 80.7493,34.6694 80.7493,33.7414 M84.8913,30.7424 L84.8913,37.8614 L80.7493,37.8614 L80.7493,36.5454 L80.6413,36.5454 C80.4473,36.9124 79.6053,37.9474 77.2983,37.9474 C75.1413,37.9474 73.5653,36.7394 73.5653,34.7554 C73.5653,32.5544 75.2483,30.8724 80.0803,30.8724 L80.7493,30.8724 L80.7493,30.6994 C80.7493,29.8584 80.2743,29.4054 79.4333,29.4054 C78.6133,29.4054 78.1603,29.8144 78.0963,30.4194 L74.1043,30.4194 C74.1043,27.7004 76.4133,26.4284 79.4773,26.4284 C83.0793,26.4284 84.8913,27.9164 84.8913,30.7424" id="Fill-10" fill="#000000"></path>
                <polygon id="Fill-11" fill="#000000" points="86.964 37.862 91.278 37.862 91.278 22.761 86.964 22.761"></polygon>
                <polygon id="Fill-12" fill="#000000" points="52.9495 70.8527 52.9495 75.9217 48.0105 75.9217 48.0105 70.8957 42.5305 60.8217 48.2045 60.8217 50.4695 65.9767 52.7135 60.8217 58.4075 60.8217"></polygon>
                <path d="M64.2542,69.1047 C64.2332,68.0267 63.5642,67.2927 62.4852,67.2927 C61.4932,67.2927 60.7602,68.0047 60.7372,69.1047 L64.2542,69.1047 Z M56.5102,70.3347 C56.5102,66.7747 58.8172,64.4887 62.4412,64.4887 C66.3902,64.4887 68.2442,66.9047 68.2442,70.6587 L68.2442,71.2837 L60.6082,71.2837 L60.6082,71.3487 C60.6942,72.5357 61.6012,73.1817 62.5272,73.1817 C63.3262,73.1817 63.8652,72.9447 64.1682,72.2967 L68.1802,72.2967 C67.4682,75.0157 65.3322,76.2237 62.5272,76.2237 C58.8172,76.2237 56.5102,73.9157 56.5102,70.3347 L56.5102,70.3347 Z" id="Fill-13" fill="#000000"></path>
                <path d="M76.3235,71.8019 L76.3235,71.2829 L75.6975,71.2829 C73.9505,71.2829 73.4535,71.8229 73.4535,72.4269 C73.4535,72.9659 73.9285,73.3119 74.5975,73.3119 C75.5675,73.3119 76.3235,72.7299 76.3235,71.8019 M80.4655,68.8029 L80.4655,75.9219 L76.3235,75.9219 L76.3235,74.6059 L76.2155,74.6059 C76.0205,74.9729 75.1785,76.0079 72.8715,76.0079 C70.7145,76.0079 69.1395,74.7999 69.1395,72.8159 C69.1395,70.6149 70.8225,68.9329 75.6545,68.9329 L76.3235,68.9329 L76.3235,68.7599 C76.3235,67.9179 75.8475,67.4659 75.0075,67.4659 C74.1875,67.4659 73.7345,67.8749 73.6705,68.4799 L69.6785,68.4799 C69.6785,65.7609 71.9865,64.4889 75.0505,64.4889 C78.6525,64.4889 80.4655,65.9769 80.4655,68.8029" id="Fill-14" fill="#000000"></path>
                <path d="M91.2776,64.6613 L91.2776,68.9743 C87.5466,68.5653 86.7906,69.7303 86.7906,72.3193 L86.7906,75.9223 L82.4756,75.9223 L82.4756,64.7903 L86.7906,64.7903 L86.7906,67.8323 C87.3736,65.5463 88.7546,64.6613 91.2776,64.6613" id="Fill-15" fill="#000000"></path>
                <path d="M22.8684,57.1994 C17.9494,57.1994 14.8434,54.1364 14.8434,49.3684 C14.8434,44.5794 17.9494,41.4944 22.8684,41.4944 C27.2244,41.4944 30.1584,43.8024 30.5254,47.9664 L25.3484,47.9664 C25.0894,46.3264 24.0974,45.5284 22.8244,45.5284 C20.9904,45.5284 19.8474,47.0164 19.8474,49.3464 C19.8474,51.6544 20.9904,53.1654 22.8244,53.1654 C24.2264,53.1654 25.1104,52.2584 25.3484,50.3824 L30.5254,50.3824 C30.2234,54.7614 27.4404,57.1994 22.8684,57.1994" id="Fill-16" fill="#000000"></path>
                <polygon id="Fill-17" fill="#000000" points="32.359 56.897 36.673 56.897 36.673 45.766 32.359 45.766"></polygon>
                <path d="M44.2014,49.0012 L44.2014,52.3232 C44.2014,53.1442 44.7844,53.5962 45.5594,53.5962 C45.9484,53.5962 46.4014,53.5532 47.2644,53.0572 L47.2644,56.6162 C46.4014,57.0912 45.3454,57.1772 44.6114,57.1772 C41.8064,57.1772 39.8874,55.5382 39.8874,53.1862 L39.8874,49.0012 L38.2254,49.0012 L38.2254,45.7662 L38.2904,45.7662 C39.2184,45.7662 39.8874,45.1622 39.8874,44.1262 L39.8874,42.6592 L44.2014,42.6592 L44.2014,45.7662 L47.4804,45.7662 L47.4804,49.0012 L44.2014,49.0012 Z" id="Fill-18" fill="#000000"></path>
                <polygon id="Fill-19" fill="#000000" points="65.7708 53.6613 65.7708 56.8963 55.1148 56.8963 55.1148 54.5463 60.1838 49.0013 55.1148 49.0013 55.1148 45.7653 65.5988 45.7653 65.5988 48.2903 60.8308 53.6613"></polygon>
                <path d="M74.4505,50.0803 C74.4295,49.0013 73.7605,48.2683 72.6815,48.2683 C71.6895,48.2683 70.9565,48.9793 70.9335,50.0803 L74.4505,50.0803 Z M66.7065,51.3093 C66.7065,47.7503 69.0135,45.4633 72.6385,45.4633 C76.5865,45.4633 78.4405,47.8803 78.4405,51.6333 L78.4405,52.2583 L70.8045,52.2583 L70.8045,52.3233 C70.8905,53.5103 71.7975,54.1573 72.7235,54.1573 C73.5225,54.1573 74.0615,53.9193 74.3645,53.2723 L78.3765,53.2723 C77.6655,55.9903 75.5285,57.1993 72.7235,57.1993 C69.0135,57.1993 66.7065,54.8913 66.7065,51.3093 L66.7065,51.3093 Z" id="Fill-20" fill="#000000"></path>
                <path d="M91.2776,49.757 L91.2776,56.897 L86.9416,56.897 L86.9416,51.094 C86.9416,49.907 86.4026,49.217 85.5606,49.217 C84.6326,49.217 83.8566,49.757 83.8566,51.439 L83.8566,56.897 L79.5426,56.897 L79.5426,45.766 L83.8566,45.766 L83.8566,47.686 C84.5476,46.132 85.7556,45.463 87.2646,45.463 C89.7676,45.463 91.2776,47.254 91.2776,49.757" id="Fill-21" fill="#000000"></path>
                <polygon id="Fill-22" fill="#000000" points="49.078 56.897 53.392 56.897 53.392 45.766 49.078 45.766"></polygon>
                <path d="M36.8655,42.1105 C36.8655,43.4145 35.8085,44.4705 34.5055,44.4705 C33.2015,44.4705 32.1435,43.4145 32.1435,42.1105 C32.1435,40.8065 33.2015,39.7505 34.5055,39.7505 C35.8085,39.7505 36.8655,40.8065 36.8655,42.1105" id="Fill-23" fill="#000000"></path>
                <path d="M53.5959,42.1105 C53.5959,43.4145 52.5389,44.4705 51.2359,44.4705 C49.9319,44.4705 48.8739,43.4145 48.8739,42.1105 C48.8739,40.8065 49.9319,39.7505 51.2359,39.7505 C52.5389,39.7505 53.5959,40.8065 53.5959,42.1105" id="Fill-24" fill="#000000"></path>
                <path d="M21.9524,89.1613 C22.5444,88.9243 23.0984,88.7093 23.6394,88.5043 C11.3974,80.0813 3.3574,65.9833 3.3574,50.0343 C3.3574,24.2983 24.2994,3.3573 50.0344,3.3573 C63.6404,3.3573 75.9034,9.2143 84.4434,18.5343 L88.8714,18.5343 C79.6894,7.2363 65.6934,0.0003 50.0344,0.0003 C22.4454,0.0003 0.000400000001,22.4443 0.000400000001,50.0343 C0.000400000001,66.3323 7.8354,80.8293 19.9314,89.9693 L21.9524,89.1613 Z" id="Fill-25" fill="#000000"></path>
            </g>
        </g>
    </g>
</svg>